<?xml version="1.0" encoding="UTF-8" standalone="no"?>
<svg
   xmlns:dc="http://purl.org/dc/elements/1.1/"
   xmlns:cc="http://creativecommons.org/ns#"
   xmlns:rdf="http://www.w3.org/1999/02/22-rdf-syntax-ns#"
   xmlns:svg="http://www.w3.org/2000/svg"
   xmlns="http://www.w3.org/2000/svg"
   viewBox="0 0 252.944 87.523201"
   height="87.523201"
   width="252.944"
   xml:space="preserve"
   id="svg2"
   version="1.1"><metadata
     id="metadata8"><rdf:RDF><cc:Work
         rdf:about=""><dc:format>image/svg+xml</dc:format><dc:type
           rdf:resource="http://purl.org/dc/dcmitype/StillImage" /></cc:Work></rdf:RDF></metadata><defs
     id="defs6"><linearGradient
       id="linearGradient28"
       spreadMethod="pad"
       gradientTransform="matrix(0,64,64,0,157.716,0.821209)"
       gradientUnits="userSpaceOnUse"
       y2="0"
       x2="1"
       y1="0"
       x1="0"><stop
         id="stop24"
         offset="0"
         style="stop-opacity:1;stop-color:#1f539b" /><stop
         id="stop26"
         offset="1"
         style="stop-opacity:1;stop-color:#2968c8" /></linearGradient></defs><g
     transform="matrix(1.3333333,0,0,-1.3333333,0,87.5232)"
     id="g10"><path
       id="path12"
       style="fill:#2968c8;fill-opacity:1;fill-rule:evenodd;stroke:none"
       d="m 61.9666,64.8212 c 0.5393,0 1.0565,-0.2142 1.4378,-0.5956 C 63.7858,63.8443 64,63.3271 64,62.7878 64,53.1865 64,12.4559 64,2.85464 64,2.31534 63.7858,1.79813 63.4044,1.41678 63.0231,1.03544 62.5059,0.821204 61.9666,0.821209 c -9.6013,0 -50.3319,0 -59.93317,0 C 1.49413,0.821204 0.976917,1.03544 0.595573,1.41678 0.21423,1.79813 -5e-6,2.31534 0,2.85464 0,12.4559 0,53.1865 0,62.7878 c -5e-6,0.5393 0.21423,1.0565 0.595573,1.4378 0.381344,0.3814 0.898557,0.5956 1.437857,0.5956 z" /><g
       id="g14"><g
         id="g16"><g
           id="g22"><path
             id="path30"
             style="fill:url(#linearGradient28);fill-rule:evenodd;stroke:none"
             d="m 187.674,64.8212 c 0.54,0 1.057,-0.2142 1.438,-0.5956 0.381,-0.3813 0.596,-0.8985 0.596,-1.4378 0,-9.6013 0,-50.3319 0,-59.93316 0,-0.5393 -0.215,-1.05651 -0.596,-1.43786 -0.381,-0.38134 -0.898,-0.595576 -1.438,-0.595571 -9.601,0 -50.332,0 -59.933,0 -0.539,-5e-6 -1.056,0.214231 -1.438,0.595571 -0.381,0.38135 -0.595,0.89856 -0.595,1.43786 0,9.60126 0,50.33186 0,59.93316 0,0.5393 0.214,1.0565 0.595,1.4378 0.382,0.3814 0.899,0.5956 1.438,0.5956 z" /></g></g></g><path
       id="path32"
       style="fill:none;stroke:#ffffff;stroke-width:4;stroke-linecap:butt;stroke-linejoin:miter;stroke-miterlimit:10;stroke-dasharray:none;stroke-opacity:1"
       d="M 32,60.8404 56.2654,46.8308 V 18.8116 L 32,4.80198 7.73463,18.8116 v 28.0192 z" /><path
       id="path34"
       style="fill:#ffffff;fill-opacity:1;fill-rule:evenodd;stroke:none"
       d="m 183.461,48.281 c 0.317,-0.1828 0.512,-0.5207 0.512,-0.8864 0,-3.8475 0,-25.2993 0,-29.1468 0,-0.3656 -0.195,-0.7035 -0.512,-0.8864 -3.332,-1.9237 -21.91,-12.64963 -25.242,-14.57336 -0.316,-0.18284 -0.706,-0.18284 -1.023,0 -3.332,1.92373 -21.91,12.64966 -25.242,14.57336 -0.317,0.1829 -0.512,0.5208 -0.512,0.8864 0,3.8475 0,25.2993 0,29.1468 0,0.3657 0.195,0.7036 0.512,0.8864 3.332,1.9237 21.91,12.6496 25.242,14.5734 0.317,0.1828 0.707,0.1828 1.023,0 3.332,-1.9238 21.91,-12.6497 25.242,-14.5734 z m -25.242,9.9546 c -0.316,0.1828 -0.706,0.1828 -1.023,0 -2.997,-1.7304 -18.245,-10.5336 -21.242,-12.264 -0.317,-0.1828 -0.512,-0.5207 -0.512,-0.8864 0,-3.4608 0,-21.0672 0,-24.528 0,-0.3656 0.195,-0.7035 0.512,-0.8864 2.997,-1.7304 18.245,-10.53356 21.242,-12.26396 0.317,-0.18284 0.707,-0.18284 1.023,0 2.998,1.7304 18.245,10.53356 21.242,12.26396 0.317,0.1829 0.512,0.5207 0.512,0.8864 0,3.4608 0,21.0672 0,24.528 0,0.3657 -0.195,0.7036 -0.512,0.8864 -2.997,1.7304 -18.244,10.5336 -21.242,12.264 z" /><path
       id="path36"
       style="fill:none;stroke:#16396d;stroke-width:4;stroke-linecap:butt;stroke-linejoin:miter;stroke-miterlimit:10;stroke-dasharray:none;stroke-opacity:1"
       d="M 32,56.2319 52.2743,44.5266 V 21.1159 L 32,9.4105 11.7257,21.1158 v 23.4108 z" /><path
       id="path38"
       style="fill:none;stroke:#ffffff;stroke-width:4;stroke-linecap:butt;stroke-linejoin:miter;stroke-miterlimit:10;stroke-dasharray:none;stroke-opacity:1"
       d="m 31.9309,51.6583 16.348,-9.3588 0.069,-18.837 -16.2788,-9.4784 -16.348,9.3588 -0.069,18.837 z" /><path
       id="path40"
       style="fill:none;stroke:#ffffff;stroke-width:4;stroke-linecap:butt;stroke-linejoin:miter;stroke-miterlimit:10;stroke-dasharray:none;stroke-opacity:1"
       d="m 157.639,51.6583 16.348,-9.3588 0.069,-18.837 -16.279,-9.4784 -16.348,9.3588 -0.069,18.837 z" /><path
       id="path42"
       style="fill:none;stroke:#16396d;stroke-width:4;stroke-linecap:butt;stroke-linejoin:miter;stroke-miterlimit:10;stroke-dasharray:none;stroke-opacity:1"
       d="m 31.9479,47.0364 12.3368,-7.0625 c -1e-4,0 0.052,-14.2152 0.052,-14.2152 10e-5,10e-5 -12.2846,-7.1527 -12.2846,-7.1527 0,0 -12.3368,7.0625 -12.3368,7.0625 10e-5,0 -0.052,14.2152 -0.052,14.2152 -10e-5,0 12.2846,7.1527 12.2846,7.1527 z" /><path
       id="path44"
       style="fill:#ffffff;fill-opacity:1;fill-rule:evenodd;stroke:none"
       d="M 32,44.7885 42.364,38.8049 V 26.8375 L 32,20.8539 21.636,26.8376 v 11.9673 z" /><path
       id="path46"
       style="fill:#ffffff;fill-opacity:1;fill-rule:evenodd;stroke:none"
       d="m 157.708,44.7885 10.364,-5.9836 V 26.8375 l -10.364,-5.9836 -10.364,5.9837 v 11.9673 z" /><path
       id="path48"
       style="fill:none;stroke:#16396d;stroke-width:4;stroke-linecap:butt;stroke-linejoin:miter;stroke-miterlimit:10;stroke-dasharray:none;stroke-opacity:1"
       d="m 42.364,38.8049 9.5622,5.4865" /><path
       id="path50"
       style="fill:none;stroke:#16396d;stroke-width:4;stroke-linecap:butt;stroke-linejoin:miter;stroke-miterlimit:10;stroke-dasharray:none;stroke-opacity:1"
       d="m 21.636,38.8049 -9.5622,5.4865" /><path
       id="path52"
       style="fill:none;stroke:#16396d;stroke-width:4;stroke-linecap:butt;stroke-linejoin:miter;stroke-miterlimit:10;stroke-dasharray:none;stroke-opacity:1"
       d="m 42.364,26.8119 8.0379,-4.5098" /><path
       id="path54"
       style="fill:none;stroke:#16396d;stroke-width:4;stroke-linecap:butt;stroke-linejoin:miter;stroke-miterlimit:10;stroke-dasharray:none;stroke-opacity:1"
       d="M 32.008,20.8539 V 11.6171" /><path
       id="path56"
       style="fill:none;stroke:#16396d;stroke-width:4;stroke-linecap:butt;stroke-linejoin:miter;stroke-miterlimit:10;stroke-dasharray:none;stroke-opacity:1"
       d="M 32.008,54.0119 V 44.7751" /><path
       id="path58"
       style="fill:none;stroke:#16396d;stroke-width:4;stroke-linecap:butt;stroke-linejoin:miter;stroke-miterlimit:10;stroke-dasharray:none;stroke-opacity:1"
       d="M 21.636,26.8119 13.5981,22.3021" /><path
       id="path60"
       style="fill:#1f539b;fill-opacity:1;fill-rule:evenodd;stroke:none"
       d="m 179.498,45.9609 c 0.299,-0.173 0.484,-0.4929 0.484,-0.839 0,-3.3951 0,-21.2063 0,-24.6014 0,-0.3461 -0.185,-0.666 -0.484,-0.839 -2.941,-1.6975 -18.366,-10.60318 -21.306,-12.30072 -0.3,-0.17307 -0.669,-0.17307 -0.969,0 -2.94,1.69753 -18.365,10.60312 -21.305,12.30072 -0.3,0.173 -0.485,0.4929 -0.485,0.839 0,3.3951 0,21.2063 0,24.6014 0,0.3461 0.185,0.666 0.485,0.839 2.94,1.6976 18.365,10.6032 21.305,12.3007 0.3,0.1731 0.669,0.1731 0.969,0 2.94,-1.6975 18.365,-10.6031 21.306,-12.3007 z m -4.959,-20.4844 c 0.3,-0.1683 0.667,-0.1649 0.964,0.0089 0.297,0.1738 0.479,0.4921 0.479,0.8361 0,3.1324 0,9.8967 0,13.0433 0,0.3457 -0.184,0.6652 -0.483,0.8384 -0.299,0.1733 -0.668,0.174 -0.968,0.002 -0.718,-0.412 -1.538,-0.8822 -2.045,-1.1736 -0.303,-0.1734 -0.488,-0.4956 -0.487,-0.8439 0.007,-1.9996 0.032,-8.7424 0.039,-10.7443 0.002,-0.3491 0.191,-0.6705 0.495,-0.8414 0.501,-0.2812 1.302,-0.7305 2.006,-1.1255 z M 159.716,14.5573 c 0,-0.3461 0.184,-0.666 0.484,-0.839 0.3,-0.1731 0.669,-0.1731 0.969,0 2.743,1.5838 8.656,4.9974 11.415,6.5904 0.302,0.1742 0.486,0.4968 0.484,0.845 -0.002,0.3483 -0.191,0.6686 -0.494,0.839 -0.732,0.4103 -1.564,0.8773 -2.075,1.1641 -0.299,0.1679 -0.665,0.165 -0.962,-0.0077 -1.724,-1.0042 -7.611,-4.4315 -9.34,-5.4383 -0.298,-0.1735 -0.481,-0.4924 -0.481,-0.8372 0,-0.5751 0,-1.5008 0,-2.3163 z m -16.874,7.4354 c -0.304,-0.1704 -0.493,-0.4907 -0.495,-0.839 -0.002,-0.3482 0.183,-0.6708 0.484,-0.845 2.762,-1.5947 8.685,-5.0142 11.431,-6.5997 0.3,-0.1731 0.67,-0.1731 0.969,0 0.3,0.173 0.485,0.4929 0.485,0.839 0,0.8297 0,1.7763 0,2.3619 0,0.3474 -0.186,0.6682 -0.488,0.8408 -1.745,0.9991 -7.669,4.3904 -9.396,5.3794 -0.296,0.1692 -0.659,0.1707 -0.956,0.0041 -0.502,-0.2816 -1.316,-0.7383 -2.034,-1.1415 z m -1.958,18.2125 c -0.299,0.172 -0.668,0.1713 -0.967,-0.002 -0.299,-0.1732 -0.484,-0.4927 -0.484,-0.8384 0,-3.1466 0,-9.9109 0,-13.0433 0,-0.344 0.183,-0.6623 0.48,-0.8361 0.296,-0.1738 0.663,-0.1772 0.963,-0.0089 0.716,0.4018 1.535,0.8612 2.046,1.1476 0.306,0.1721 0.496,0.4968 0.494,0.8485 -0.007,2.0095 -0.032,8.7527 -0.039,10.7448 -0.001,0.3458 -0.187,0.6647 -0.487,0.8368 -0.498,0.2862 -1.3,0.746 -2.006,1.151 z m 6.533,-12.8153 c 0.001,-0.3461 0.187,-0.6653 0.487,-0.8373 1.736,-0.9938 7.626,-4.3654 9.362,-5.3593 0.3,-0.1719 0.67,-0.1706 0.969,0.0036 1.728,1.0065 7.593,4.4212 9.322,5.4278 0.299,0.1741 0.482,0.4946 0.481,0.8408 -0.007,2.0004 -0.032,8.7866 -0.039,10.787 -0.002,0.3462 -0.187,0.6653 -0.488,0.8373 -1.736,0.9939 -7.625,4.3654 -9.362,5.3593 -0.3,0.172 -0.669,0.1706 -0.968,-0.0036 -1.729,-1.0065 -7.594,-4.4212 -9.322,-5.4277 -0.3,-0.1742 -0.483,-0.4947 -0.482,-0.8408 0.008,-2.0005 0.032,-8.7867 0.04,-10.7871 z m 8.299,23.7045 c 0,0.3461 -0.185,0.666 -0.485,0.839 -0.299,0.1731 -0.669,0.1731 -0.969,0 -2.741,-1.5828 -8.647,-4.9927 -11.392,-6.5776 -0.3,-0.1733 -0.485,-0.4937 -0.485,-0.8403 0.001,-0.3466 0.186,-0.6666 0.487,-0.8391 0.721,-0.4138 1.544,-0.8857 2.052,-1.1773 0.3,-0.1724 0.67,-0.1712 0.969,0.0031 1.733,1.0086 7.613,4.4325 9.341,5.4388 0.298,0.1735 0.482,0.4923 0.482,0.8372 0,0.575 0,1.5007 0,2.3162 z m 4,-2.3711 c 0,-0.3474 0.186,-0.6683 0.487,-0.8409 1.74,-0.9961 7.634,-4.3699 9.365,-5.3609 0.298,-0.1709 0.665,-0.1707 0.963,4e-4 0.499,0.2863 1.303,0.7478 2.012,1.1545 0.301,0.1725 0.487,0.4925 0.487,0.8391 0.001,0.3466 -0.184,0.667 -0.484,0.8403 -2.743,1.5832 -8.638,4.9871 -11.377,6.5683 -0.3,0.1731 -0.669,0.1731 -0.969,0 -0.3,-0.173 -0.484,-0.4929 -0.484,-0.839 0,-0.8297 0,-1.7762 0,-2.3618 z" /></g></svg>