<?xml version="1.0" encoding="UTF-8" standalone="no"?>
<!DOCTYPE svg PUBLIC "-//W3C//DTD SVG 1.1//EN" "http://www.w3.org/Graphics/SVG/1.1/DTD/svg11.dtd">
<svg width="100%" height="100%" viewBox="0 0 257 64" version="1.1" xmlns="http://www.w3.org/2000/svg" xmlns:xlink="http://www.w3.org/1999/xlink" xml:space="preserve" xmlns:serif="http://www.serif.com/" style="fill-rule:evenodd;clip-rule:evenodd;stroke-linejoin:round;stroke-miterlimit:2;">
    <g transform="matrix(1,0,0,1,-458,-597.825)">
        <g>
            <g transform="matrix(0.355177,0,0,0.355177,296.344,462.281)">
                <path d="M629.609,381.621C631.127,381.621 632.583,382.224 633.657,383.298C634.73,384.372 635.334,385.828 635.334,387.346C635.334,414.379 635.334,529.055 635.334,556.088C635.334,557.606 634.73,559.062 633.657,560.136C632.583,561.21 631.127,561.813 629.609,561.813C602.576,561.813 487.899,561.813 460.867,561.813C459.349,561.813 457.892,561.21 456.819,560.136C455.745,559.062 455.142,557.606 455.142,556.088C455.142,529.055 455.142,414.379 455.142,387.346C455.142,385.828 455.745,384.372 456.819,383.298C457.892,382.224 459.349,381.621 460.867,381.621L629.609,381.621Z" style="fill:rgb(41,104,200);"/>
            </g>
            <g transform="matrix(0.906276,0,0,0.906276,45.9246,252.814)">
                <path d="M516.265,400.836L516.265,431.164L490,446.329L463.735,431.164L463.735,400.836L490,385.671L516.265,400.836Z" style="fill:white;"/>
            </g>
            <g transform="matrix(0.906276,0,0,0.906276,45.9246,252.814)">
                <path d="M512.274,403.14L512.274,428.86L490,441.72L467.726,428.86L467.726,403.14L490,390.28L512.274,403.14ZM488.008,396.049C484.489,398.08 477.214,402.281 473.704,404.307L477.702,406.601L488.008,400.6L488.008,396.049ZM506.296,404.307L492.008,396.058L492.008,400.66L502.342,406.576L506.296,404.307ZM508.274,424.154C508.274,420.073 508.274,411.822 508.274,407.784L504.289,410.07L504.333,421.943L508.274,424.154ZM492.008,435.942C495.551,433.896 502.868,429.672 506.35,427.661L502.308,425.393L492.008,431.391L492.008,435.942ZM473.65,427.661C477.138,429.675 484.471,433.909 488.008,435.951L488.008,431.35L477.647,425.418L473.65,427.661ZM471.726,407.784C471.726,411.822 471.726,420.073 471.726,424.154L475.711,421.918L475.667,410.045L471.726,407.784ZM479.711,421.991L490.044,427.906L500.333,421.915L500.289,410.009L489.956,404.094L479.667,410.085L479.711,421.991Z" style="fill:rgb(22,57,109);"/>
            </g>
            <g transform="matrix(5.63182,0,0,5.63182,-2594.64,-2232.52)">
                <path d="M556.24,508.583L557.596,508.583C557.62,508.744 557.693,508.886 557.816,509.009C557.939,509.132 558.104,509.227 558.31,509.293C558.516,509.359 558.756,509.392 559.031,509.392C559.424,509.392 559.733,509.338 559.958,509.229C560.183,509.12 560.295,508.966 560.295,508.767C560.295,508.616 560.23,508.499 560.1,508.416C559.97,508.333 559.727,508.272 559.372,508.235L558.342,508.128C557.627,508.057 557.11,507.891 556.79,507.631C556.47,507.37 556.311,507.015 556.311,506.566C556.311,506.21 556.416,505.907 556.627,505.656C556.837,505.405 557.133,505.214 557.514,505.081C557.896,504.949 558.342,504.882 558.853,504.882C559.36,504.882 559.807,504.956 560.196,505.102C560.584,505.249 560.894,505.453 561.126,505.713C561.358,505.974 561.484,506.279 561.503,506.629L560.146,506.629C560.127,506.483 560.062,506.358 559.951,506.257C559.839,506.155 559.69,506.074 559.503,506.015C559.316,505.956 559.092,505.926 558.832,505.926C558.472,505.926 558.187,505.977 557.976,506.079C557.765,506.181 557.66,506.326 557.66,506.516C557.66,506.658 557.723,506.769 557.848,506.85C557.974,506.93 558.198,506.989 558.519,507.027L559.606,507.148C560.103,507.2 560.501,507.283 560.799,507.397C561.098,507.51 561.313,507.666 561.446,507.865C561.578,508.064 561.645,508.315 561.645,508.618C561.645,508.983 561.535,509.301 561.314,509.573C561.094,509.846 560.786,510.058 560.391,510.209C559.996,510.361 559.535,510.436 559.01,510.436C558.465,510.436 557.988,510.358 557.578,510.202C557.169,510.046 556.847,509.829 556.612,509.552C556.378,509.275 556.254,508.952 556.24,508.583Z" style="fill-rule:nonzero;"/>
                <path d="M563.47,511.608C563.186,511.608 562.934,511.573 562.714,511.502C562.493,511.431 562.279,511.324 562.071,511.182L562.071,510.252C562.284,510.389 562.484,510.487 562.671,510.546C562.858,510.606 563.063,510.635 563.285,510.635C563.484,510.635 563.658,510.593 563.807,510.507C563.956,510.422 564.081,510.266 564.18,510.039L565.8,506.274L567.199,506.274L565.217,510.451C565.085,510.735 564.926,510.962 564.741,511.132C564.557,511.303 564.357,511.425 564.141,511.498C563.926,511.572 563.702,511.608 563.47,511.608ZM563.626,510.003L561.872,506.274L563.321,506.274L564.898,510.003L563.626,510.003Z" style="fill-rule:nonzero;"/>
                <path d="M567.518,506.274L568.832,506.274L569.095,507.851L569.095,510.323L567.774,510.323L567.774,507.652L567.518,506.274ZM570.608,506.161C570.996,506.161 571.326,506.238 571.599,506.391C571.871,506.545 572.079,506.764 572.224,507.048C572.368,507.333 572.44,507.671 572.44,508.064L572.44,510.323L571.119,510.323L571.119,508.263C571.119,507.927 571.036,507.672 570.871,507.499C570.705,507.327 570.468,507.24 570.16,507.24C569.943,507.24 569.754,507.286 569.596,507.379C569.437,507.471 569.314,507.601 569.227,507.769C569.139,507.937 569.095,508.138 569.095,508.37L568.676,508.149C568.728,507.718 568.845,507.356 569.028,507.063C569.21,506.769 569.437,506.545 569.709,506.391C569.982,506.238 570.281,506.161 570.608,506.161Z" style="fill-rule:nonzero;"/>
                <path d="M578.037,508.639C577.999,508.995 577.868,509.307 577.643,509.577C577.418,509.847 577.129,510.058 576.776,510.209C576.424,510.361 576.027,510.436 575.587,510.436C575.099,510.436 574.668,510.346 574.294,510.166C573.92,509.987 573.629,509.736 573.421,509.414C573.212,509.092 573.108,508.72 573.108,508.299C573.108,507.877 573.212,507.505 573.421,507.183C573.629,506.861 573.92,506.61 574.294,506.431C574.668,506.251 575.099,506.161 575.587,506.161C576.027,506.161 576.424,506.236 576.776,506.388C577.129,506.539 577.418,506.749 577.643,507.017C577.868,507.284 577.999,507.598 578.037,507.958L576.723,507.958C576.671,507.697 576.542,507.498 576.336,507.361C576.13,507.224 575.88,507.155 575.587,507.155C575.355,507.155 575.152,507.2 574.98,507.29C574.807,507.38 574.673,507.51 574.578,507.681C574.484,507.851 574.436,508.057 574.436,508.299C574.436,508.54 574.484,508.746 574.578,508.916C574.673,509.087 574.807,509.217 574.98,509.307C575.152,509.397 575.355,509.442 575.587,509.442C575.885,509.442 576.136,509.37 576.34,509.225C576.543,509.081 576.671,508.886 576.723,508.639L578.037,508.639Z" style="fill-rule:nonzero;"/>
                <path d="M578.513,506.274L579.848,506.274L580.09,507.73L580.09,510.323L578.769,510.323L578.769,507.624L578.513,506.274ZM582.022,506.217L582.022,507.354C581.894,507.325 581.767,507.304 581.642,507.29C581.516,507.276 581.401,507.269 581.297,507.269C581.07,507.269 580.865,507.315 580.683,507.407C580.501,507.499 580.356,507.645 580.25,507.844C580.143,508.043 580.09,508.301 580.09,508.618L579.827,508.291C579.86,508.003 579.915,507.73 579.99,507.475C580.066,507.219 580.17,506.993 580.303,506.796C580.435,506.6 580.6,506.445 580.796,506.331C580.993,506.217 581.231,506.161 581.51,506.161C581.591,506.161 581.676,506.165 581.766,506.175C581.856,506.184 581.941,506.199 582.022,506.217Z" style="fill-rule:nonzero;"/>
                <path d="M586.191,510.323L586.013,508.853L586.205,508.299L586.013,507.752L586.191,506.274L587.562,506.274L587.313,508.299L587.562,510.323L586.191,510.323ZM586.518,508.299C586.447,508.729 586.312,509.105 586.113,509.424C585.914,509.744 585.663,509.992 585.36,510.17C585.057,510.348 584.716,510.436 584.337,510.436C583.939,510.436 583.59,510.346 583.289,510.166C582.989,509.987 582.753,509.737 582.583,509.417C582.412,509.098 582.327,508.725 582.327,508.299C582.327,507.872 582.412,507.499 582.583,507.18C582.753,506.86 582.989,506.61 583.289,506.431C583.59,506.251 583.939,506.161 584.337,506.161C584.716,506.161 585.057,506.249 585.36,506.427C585.663,506.605 585.915,506.852 586.116,507.169C586.317,507.486 586.451,507.863 586.518,508.299ZM583.662,508.299C583.662,508.516 583.707,508.709 583.797,508.877C583.887,509.045 584.012,509.178 584.17,509.275C584.329,509.372 584.512,509.421 584.721,509.421C584.929,509.421 585.127,509.372 585.314,509.275C585.501,509.178 585.665,509.045 585.807,508.877C585.949,508.709 586.056,508.516 586.127,508.299C586.056,508.081 585.949,507.888 585.807,507.72C585.665,507.552 585.501,507.419 585.314,507.322C585.127,507.225 584.929,507.176 584.721,507.176C584.512,507.176 584.329,507.225 584.17,507.322C584.012,507.419 583.887,507.552 583.797,507.72C583.707,507.888 583.662,508.081 583.662,508.299Z" style="fill-rule:nonzero;"/>
            </g>
        </g>
    </g>
</svg>
