<?xml version="1.0" encoding="UTF-8" standalone="no"?>
<!DOCTYPE svg PUBLIC "-//W3C//DTD SVG 1.1//EN" "http://www.w3.org/Graphics/SVG/1.1/DTD/svg11.dtd">
<svg width="100%" height="100%" viewBox="0 0 64 64" version="1.1" xmlns="http://www.w3.org/2000/svg" xmlns:xlink="http://www.w3.org/1999/xlink" xml:space="preserve" xmlns:serif="http://www.serif.com/" style="fill-rule:evenodd;clip-rule:evenodd;stroke-linejoin:round;stroke-miterlimit:2;">
    <g transform="matrix(1,0,0,1,-363.251,-597.825)">
        <g transform="matrix(1,0,0,1,-154,372.005)">
            <g transform="matrix(0.355177,0,0,0.355177,355.595,90.276)">
                <path d="M629.609,381.621C631.127,381.621 632.583,382.224 633.657,383.298C634.73,384.372 635.334,385.828 635.334,387.346C635.334,414.379 635.334,529.055 635.334,556.088C635.334,557.606 634.73,559.062 633.657,560.136C632.583,561.21 631.127,561.813 629.609,561.813C602.576,561.813 487.899,561.813 460.867,561.813C459.349,561.813 457.892,561.21 456.819,560.136C455.745,559.062 455.142,557.606 455.142,556.088C455.142,529.055 455.142,414.379 455.142,387.346C455.142,385.828 455.745,384.372 456.819,383.298C457.892,382.224 459.349,381.621 460.867,381.621L629.609,381.621Z" style="fill:rgb(41,104,200);"/>
            </g>
            <g transform="matrix(1,0,0,1,59.2507,-158.181)">
                <path d="M516.265,400.836L516.265,431.164L490,446.329L463.735,431.164L463.735,400.836L490,385.671L516.265,400.836Z" style="fill:white;"/>
            </g>
            <g transform="matrix(1,0,0,1,59.2507,-158.181)">
                <path d="M512.274,403.14L512.274,428.86L490,441.72L467.726,428.86L467.726,403.14L490,390.28L512.274,403.14ZM488.008,396.049C484.489,398.08 477.214,402.281 473.704,404.307L477.702,406.601L488.008,400.6L488.008,396.049ZM506.296,404.307L492.008,396.058L492.008,400.66L502.342,406.576L506.296,404.307ZM508.274,424.154C508.274,420.073 508.274,411.822 508.274,407.784L504.289,410.07L504.333,421.943L508.274,424.154ZM492.008,435.942C495.551,433.896 502.868,429.672 506.35,427.661L502.308,425.393L492.008,431.391L492.008,435.942ZM473.65,427.661C477.138,429.675 484.471,433.909 488.008,435.951L488.008,431.35L477.647,425.418L473.65,427.661ZM471.726,407.784C471.726,411.822 471.726,420.073 471.726,424.154L475.711,421.918L475.667,410.045L471.726,407.784ZM479.711,421.991L490.044,427.906L500.333,421.915L500.289,410.009L489.956,404.094L479.667,410.085L479.711,421.991Z" style="fill:rgb(22,57,109);"/>
            </g>
        </g>
    </g>
</svg>
